<?xml version="1.0" encoding="utf-8"?>
<!-- Generator: Adobe Illustrator 19.2.1, SVG Export Plug-In . SVG Version: 6.00 Build 0)  -->
<svg version="1.1" id="layer" xmlns="http://www.w3.org/2000/svg" xmlns:xlink="http://www.w3.org/1999/xlink" x="0px" y="0px"
	 viewBox="0 0 652 652" style="enable-background:new 0 0 652 652;" xml:space="preserve">
<style type="text/css">
	.st0{fill:#ED2931;}
	.st1{fill:#333333;}
</style>
<g id="black-header">
	<g id="navbar---logged-in---web-apps-copy" transform="translate(-21.000000, -77.000000)">
		<g id="main-navbar" transform="translate(0.000000, 69.000000)">
			<g id="backstage-logo" transform="translate(21.000000, 8.000000)">
				<polyline id="Fill-1" class="st0" points="600.5,337.6 604.3,325.7 608.1,337.6 620.4,337.6 610.5,345 614.3,357 604.3,349.6 
					594.3,357 598.1,345 588.2,337.6 600.5,337.6 				"/>
				<path id="Fill-2" class="st1" d="M596.5,324c0-2.9-0.4-5.6-1-8.3l0-0.1c-3.6-14.1-16.1-24.5-31-24.5c0,0,0,0-0.1,0
					c0,0,0,0-0.1,0c-15,0-27.5,10.4-31.1,24.6l0,0.1c-0.7,2.7-0.9,5.3-0.9,8.2c0,2.9,0.2,5.5,0.9,8.2l0,0.1
					c3.6,14.1,16.2,24.6,31.1,24.6c0,0,0,0,0.1,0c0,0,0,0,0.1,0c9,0,17-3.7,22.9-9.8l-11.5-11.8c-2.5,2.7-6,4.5-9.8,4.9c0,0,0,0,0,0
					c-0.2,0-0.5,0-0.7,0.1c-0.2,0-0.8,0-0.9,0c-0.1,0-0.7,0-0.9,0c-6.4-0.4-11.8-4.6-14-10.4H596C596.3,327.9,596.5,326,596.5,324
					L596.5,324z M562.8,307.8c0,0,0.5,0,0.7-0.1c0.2,0,0.8,0,0.9,0c0.1,0,0.7,0,0.9,0c5.4,0.3,10,3.4,12.7,7.8h-27.1
					C553.3,311.3,557.7,308.3,562.8,307.8L562.8,307.8z M511,293.2v4.3c-4.4-3.8-10.5-6.4-16.3-6.4c-17.8,0-31.8,14.7-31.8,32.8
					c0,18.1,14,32.8,31.8,32.8c5.8,0,11.1-1.5,16.3-6.4v3.2c0,9-7.1,16.2-15.9,16.2v16.6c17.7,0,32.1-14.7,32.2-32.8l0-60.5H511
					L511,293.2z M495.1,340.2c-8.8,0-15.9-7.3-15.9-16.3c0-9,7.1-16.3,15.9-16.3c8.6,0,15.5,6.9,15.9,15.5v1.6
					C510.6,333.4,503.6,340.2,495.1,340.2L495.1,340.2z M441.7,293.2v4.3c-4-3.8-11.3-6.4-17.1-6.4c-17.8,0-31,14.7-31,32.9
					c0,18.2,13.2,32.9,31,32.9c5.8,0,12.4-2.1,17.1-6.4v4.3h16.2v-61.7H441.7L441.7,293.2z M425.7,340.3c-8.8,0-16-7.3-16-16.3
					c0-9,7.1-16.3,16-16.3c8.6,0,15.5,6.9,15.9,15.5v1.6C441.3,333.4,434.3,340.3,425.7,340.3L425.7,340.3z M392.6,307.9h-15.3v46.9
					H361v-46.9h-15.3v-14.8H361v-35.6h16.2v35.6h15.3V307.9L392.6,307.9z M316.5,356.8L316.5,356.8c-9.9,0-16.8-1.8-24.4-6.3
					l-2.4-1.4l5.5-16.1l1.3,0.8c6.4,4.2,13.2,6.3,20.1,6.3h0.2c5.5,0,7.9-0.8,9.4-2.9c0.5-0.7,0.6-1.7,0.6-2.3
					c0-2.1-2.7-2.8-7.3-3.2c-0.9-0.1-1.8-0.2-2.6-0.3c-3.2-0.3-9.7-0.8-15.5-3.4c-7.3-3.2-11.1-8.8-11.1-16
					c0-15,13.3-20.6,24.7-20.9c0.5,0,1,0,1.5,0c8.7,0,15.3,1.7,23,5.9l2.4,1.3l-5.5,15.8l-1.2-0.7c-6.4-3.6-13.8-5.8-19.9-5.8
					l-0.3,0c-5.9,0-7.2,2-7.2,3.6c0,2.1,3.9,2.4,6,2.5l0.9,0.1c1.1,0.1,2.2,0.2,3.3,0.3l0.7,0.1c3.7,0.5,9.9,1.2,15.3,4
					c6.7,3.5,10.1,9,10.1,16.5c0,7.4-3.1,13.3-8.9,17.1c-4.7,3.1-11.3,4.9-18.6,4.9H316.5L316.5,356.8z M262,323.7l28.8,31.1h-21.5
					l-25.6-31.1l25.6-30.6h21.5L262,323.7L262,323.7z M227.5,354.8h16.2v-97.3h-16.2V354.8z M222.4,332.3
					c-3.6,14.1-16.2,24.6-31.1,24.6c-17.8,0-32.2-14.7-32.2-32.9c0-18.1,14.4-32.9,32.2-32.9c15,0,27.5,10.4,31.1,24.6H205
					c-2.8-4.8-7.9-8-13.7-8c-8.8,0-15.9,7.3-15.9,16.3c0,9,7.1,16.3,15.9,16.3c5.8,0,10.9-3.2,13.7-8H222.4L222.4,332.3z
					 M137.8,293.2v4.3c-4-3.8-11.3-6.4-17.1-6.4c-17.8,0-31,14.7-31,32.9c0,18.2,13.2,32.9,31,32.9c5.8,0,12.4-2.1,17.1-6.4v4.3H154
					v-61.7H137.8L137.8,293.2z M121.8,340.3c-8.8,0-16-7.3-16-16.3c0-9,7.1-16.3,16-16.3c8.6,0,15.5,6.9,15.9,15.5v1.6
					C137.4,333.4,130.4,340.3,121.8,340.3L121.8,340.3z M20.4,257.5v97.3h16.2v-4.3c4.4,3.7,11.3,6.4,17.1,6.4
					c17.8,0,31-14.7,31-32.9c0-18.2-13.2-32.9-31-32.9c-5.8,0-12.5,2.3-17.1,6.4v-39.9H20.4L20.4,257.5z M36.7,324.8v-1.6
					c0.4-8.6,7.4-15.5,15.9-15.5c8.8,0,16,7.3,16,16.3c0,9-7.1,16.3-16,16.3C44,340.3,37.1,333.4,36.7,324.8L36.7,324.8z"/>
			</g>
		</g>
	</g>
</g>
</svg>
